HIERARCHY
ROOT Hips
{
	OFFSET 0.000000 0.000000 0.000000
	CHANNELS 6 Xposition Yposition Zposition Zrotation Yrotation Xrotation 
	JOINT LowerBack
	{
		OFFSET 0.000000 0.000000 0.000000
		CHANNELS 3 Zrotation Yrotation Xrotation
		JOINT Spine
		{
			OFFSET 0.028270 2.035590 -0.193380
			CHANNELS 3 Zrotation Yrotation Xrotation
			JOINT Spine1
			{
				OFFSET 0.056720 2.048850 -0.042750
				CHANNELS 3 Zrotation Yrotation Xrotation
				JOINT Neck
				{
					OFFSET 0.000000 0.000000 0.000000
					CHANNELS 3 Zrotation Yrotation Xrotation
					JOINT Neck1
					{
						OFFSET -0.054170 1.746240 0.172020
						CHANNELS 3 Zrotation Yrotation Xrotation
						JOINT Head
						{
							OFFSET 0.104070 1.761360 -0.123970
							CHANNELS 3 Zrotation Yrotation Xrotation
							End Site
							{
								OFFSET 0.000000 0.000000 0.000000
							}
						}
					}
				}
				JOINT LeftShoulder
				{
					OFFSET 0.000000 0.000000 0.000000
					CHANNELS 3 Zrotation Yrotation Xrotation
					JOINT LeftArm
					{
						OFFSET 3.362410 1.200890 -0.311210
						CHANNELS 3 Zrotation Yrotation Xrotation
						JOINT LeftForeArm
						{
							OFFSET 4.983000 -0.000000 -0.000000
							CHANNELS 3 Zrotation Yrotation Xrotation
							JOINT LeftHand
							{
								OFFSET 3.483560 -0.000000 -0.000000
								CHANNELS 3 Zrotation Yrotation Xrotation
								JOINT LeftFingerBase
								{
									OFFSET 0.000000 0.000000 0.000000
									CHANNELS 3 Zrotation Yrotation Xrotation
									JOINT LeftHandIndex1
									{
										OFFSET 0.715260 -0.000000 -0.000000
										CHANNELS 3 Zrotation Yrotation Xrotation
										End Site
										{
											OFFSET 0.000000 0.000000 0.000000
										}
									}
								}
								JOINT LThumb
								{
									OFFSET 0.000000 0.000000 0.000000
									CHANNELS 3 Zrotation Yrotation Xrotation
									End Site
									{
										OFFSET 0.000000 0.000000 0.000000
									}
								}
							}
						}
					}
				}
				JOINT RightShoulder
				{
					OFFSET 0.000000 0.000000 0.000000
					CHANNELS 3 Zrotation Yrotation Xrotation
					JOINT RightArm
					{
						OFFSET -3.136600 1.374050 -0.404650
						CHANNELS 3 Zrotation Yrotation Xrotation
						JOINT RightForeArm
						{
							OFFSET -5.241900 -0.000000 -0.000000
							CHANNELS 3 Zrotation Yrotation Xrotation
							JOINT RightHand
							{
								OFFSET -3.444170 -0.000000 -0.000000
								CHANNELS 3 Zrotation Yrotation Xrotation
								JOINT RightFingerBase
								{
									OFFSET 0.000000 0.000000 0.000000
									CHANNELS 3 Zrotation Yrotation Xrotation
									JOINT RightHandIndex1
									{
										OFFSET -0.622530 -0.000000 -0.000000
										CHANNELS 3 Zrotation Yrotation Xrotation
										End Site
										{
											OFFSET 0.000000 0.000000 0.000000
										}
									}
								}
								JOINT RThumb
								{
									OFFSET 0.000000 0.000000 0.000000
									CHANNELS 3 Zrotation Yrotation Xrotation
									End Site
									{
										OFFSET 0.000000 0.000000 0.000000
									}
								}
							}
						}
					}
				}
			}
		}
	}
}
}
MOTION
Frames: 7
Frame Time: 0.008333
18.475482 16.153602 2.531716 51.391843 -88.769000 13.249917 2.240749 -1.488941 -2.502546 -0.602971 -1.785739 -3.613292 -6.151200 -2.025427 0.121739 8.421466 -3.772225 -7.987665 -3.731608 -0.249087 -0.863917 0.000000 0.000000 0.000000 -4.198442 -0.008222 3.887773 -72.278108 2.889803 16.432087 -1.655709 -27.497942 -0.001178 0.787974 -1.162356 -0.008880 -0.012815 0.151347 -0.000000 0.000000 0.000000 0.000000 0.000000 0.000000 0.000000 19.826754 -2.339734 3.586843 72.828876 4.238041 -0.546739 1.621245 18.433323 0.003542 -0.250005 5.953669 -0.015067 0.036295 -0.203742 0.000000 0.000000 0.000000 0.000000 0.000000 0.000000 0.000000 
18.449143 16.060298 2.532918 56.481234 -88.582958 9.207541 2.160138 -1.538940 -2.822546 -0.615906 -1.846234 -3.697692 -6.122567 -2.089668 0.100095 8.439127 -3.881174 -8.116103 -3.710599 -0.245617 -0.914785 0.000000 0.000000 0.000000 -4.231123 -0.027818 3.932883 -71.956020 2.776031 16.997574 -1.660151 -27.874258 -0.000955 0.684094 -1.075765 -0.007170 -0.012798 0.155438 -0.000000 0.000000 0.000000 0.000000 0.000000 0.000000 0.000000 19.880756 -2.423367 3.624566 72.700887 4.194568 -0.037859 1.590788 18.722035 0.003583 -0.216187 6.064847 -0.013466 0.035020 -0.208162 0.000000 0.000000 0.000000 0.000000 0.000000 0.000000 0.000000 
18.422214 15.958511 2.533964 61.545096 -88.359067 5.169165 2.055755 -1.594080 -3.150466 -0.635488 -1.911587 -3.785200 -6.091910 -2.158805 0.077767 8.447603 -3.973272 -8.232149 -3.692285 -0.242524 -0.961238 0.000000 0.000000 0.000000 -4.277196 -0.076070 3.976870 -71.616019 2.679867 17.539170 -1.667283 -28.274745 -0.000691 0.570790 -0.978640 -0.005461 -0.012805 0.159362 -0.000000 0.000000 0.000000 0.000000 0.000000 0.000000 0.000000 19.936397 -2.495462 3.663651 72.589407 4.151351 0.380935 1.558082 19.034586 0.003567 -0.148359 5.954669 -0.009469 0.033244 -0.210337 0.000000 0.000000 0.000000 0.000000 0.000000 0.000000 0.000000 
18.394605 15.847696 2.534767 66.463812 -88.101926 1.250842 1.923635 -1.653562 -3.484128 -0.663003 -1.980444 -3.873155 -6.058690 -2.231203 0.061013 8.449440 -4.072840 -8.345128 -3.675621 -0.239626 -1.005912 0.000000 0.000000 0.000000 -4.334066 -0.116420 4.018427 -71.257381 2.563101 18.094020 -1.678737 -28.670080 -0.000378 0.448438 -0.886721 -0.003850 -0.012961 0.163180 -0.000000 0.000000 0.000000 0.000000 0.000000 0.000000 0.000000 19.994470 -2.579626 3.701982 72.486489 4.126804 0.786317 1.524914 19.366799 0.003486 -0.064600 5.637581 -0.004573 0.031288 -0.210222 0.000000 0.000000 0.000000 0.000000 0.000000 0.000000 0.000000 
18.366635 15.727821 2.535442 71.030422 -87.823238 -2.351936 1.768482 -1.714089 -3.819273 -0.697996 -2.049272 -3.961383 -6.024910 -2.303296 0.046446 8.445327 -4.171955 -8.451673 -3.661061 -0.237004 -1.047692 0.000000 0.000000 0.000000 -4.402966 -0.159916 4.058161 -70.882378 2.440213 18.644699 -1.693944 -29.060458 -0.000010 0.314436 -0.811373 -0.002440 -0.013167 0.166928 -0.000000 0.000000 0.000000 0.000000 0.000000 0.000000 0.000000 20.051997 -2.666279 3.738393 72.386416 4.092750 1.199737 1.493603 19.727863 0.003397 0.027025 5.220716 0.000217 0.029295 -0.208884 0.000000 0.000000 0.000000 0.000000 0.000000 0.000000 0.000000 
18.337845 15.598974 2.536014 75.132962 -87.531452 -5.535064 1.596038 -1.774179 -4.150182 -0.739232 -2.116396 -4.048051 -5.992253 -2.373331 0.034325 8.438851 -4.275782 -8.553694 -3.648635 -0.234633 -1.087177 0.000000 0.000000 0.000000 -4.483924 -0.198119 4.096172 -70.492063 2.300854 19.196831 -1.712777 -29.433368 0.000412 0.171669 -0.764230 -0.001128 -0.013437 0.170671 -0.000000 0.000000 0.000000 0.000000 0.000000 0.000000 0.000000 20.110277 -2.760221 3.770716 72.278125 4.044756 1.668916 1.466493 20.110407 0.003330 0.108310 4.822575 0.003913 0.027565 -0.207524 0.000000 0.000000 0.000000 0.000000 0.000000 0.000000 0.000000 
18.308629 15.461625 2.536718 78.631100 -87.240271 -8.169634 1.420627 -1.830511 -4.470390 -0.783370 -2.178792 -4.133469 -5.963480 -2.438435 0.017697 8.429436 -4.359019 -8.642875 -3.639945 -0.232735 -1.121991 0.000000 0.000000 0.000000 -4.583074 -0.257995 4.134134 -70.087914 2.173722 19.716775 -1.733405 -29.798331 0.000877 0.022858 -0.749255 0.000084 -0.013651 0.174445 -0.000000 0.000000 0.000000 0.000000 0.000000 0.000000 0.000000 20.167805 -2.834552 3.798507 72.157271 3.944500 2.170826 1.444514 20.522461 0.003323 0.174682 4.560059 0.006508 0.026129 -0.207538 0.000000 0.000000 0.000000 0.000000 0.000000 0.000000 0.000000 
